<svg id="Capa_1" enable-background="new 0 0 511.999 511.999" height="512" viewBox="0 0 511.999 511.999" width="512" xmlns="http://www.w3.org/2000/svg"><g><path d="m256 159.339c-71.111 0-138.098 46.354-158.461 124.302 2.979-.599 6.722-1.467 12.216-1.467 10.955 0 21.328 3.517 30.001 10.172l1.827 1.401c15.36-56.457 63.726-89.231 114.418-89.231 50.081 0 98.889 32.159 114.416 89.231 14.537-11.151 27.334-13.469 44.043-10.107-20.338-77.851-87.275-124.301-158.46-124.301z" fill="#fee17d"/><g><g fill="#ffce65"><path d="m141.583 293.747c3.187-11.713 7.812-22.389 13.566-31.982-12.806-8.627-27.995-13.548-44.03-13.813-5.65 11.007-10.244 22.921-13.579 35.688 2.979-.599 6.722-1.467 12.216-1.467 10.955 0 21.328 3.517 30.001 10.172z"/><path d="m414.46 283.64c-3.334-12.764-7.929-24.678-13.582-35.688-16.03.265-31.214 5.183-44.017 13.805 5.736 9.572 10.36 20.244 13.556 31.989 14.536-11.15 27.333-13.468 44.043-10.106z"/></g></g><path d="m155.022 308.249c1.906 3.699 5.689 5.99 9.85 5.963 4.995-.032 9.774 1.39 13.861 3.917 2.251-40.672 36.043-73.071 77.267-73.071 41.223 0 75.014 32.4 77.265 73.071 4.087-2.527 8.866-3.949 13.861-3.917 4.161.027 7.944-2.264 9.85-5.963 3.463-6.719 8.377-12.566 14.326-17.13-13.801-50.732-60.261-88.148-115.302-88.148-55.043 0-101.503 37.416-115.304 88.148 5.949 4.564 10.864 10.411 14.326 17.13z" fill="#00e49d"/><g fill="#00d391"><path d="m176.874 283.299c-6.253-9.089-14.15-16.689-23.168-22.488-5.654 9.349-10.076 19.523-13.01 30.307 5.949 4.565 10.863 10.411 14.326 17.13 1.906 3.699 5.689 5.99 9.85 5.963 4.995-.032 9.774 1.39 13.861 3.917.625-11.299 3.692-21.955 8.669-31.46-3.378-1.452-6.899-2.593-10.528-3.369z"/><path d="m347.127 314.211c4.161.027 7.944-2.264 9.85-5.963 3.462-6.719 8.377-12.566 14.326-17.13-2.934-10.784-7.356-20.958-13.01-30.308-9.017 5.799-16.914 13.399-23.167 22.488-3.629.776-7.15 1.916-10.529 3.37 4.977 9.505 8.043 20.161 8.669 31.46 4.087-2.526 8.866-3.949 13.861-3.917z"/></g><path d="m54.637 314.211c4.161.027 7.944-2.264 9.85-5.963 6.971-13.526 19.82-23.52 35.171-26.612 18.129-69.391 81.348-120.752 156.342-120.752 74.993 0 138.211 51.361 156.339 120.753 15.352 3.091 28.201 13.086 35.172 26.612 1.906 3.699 5.689 5.99 9.85 5.963.71-.005 1.414.029 2.114.082-4.284-108.691-93.735-195.496-203.477-195.496s-199.191 86.804-203.475 195.495c.7-.052 1.404-.086 2.114-.082z" fill="#ed5469"/><g fill="#e63850"><path d="m64.488 308.249c6.971-13.526 19.82-23.52 35.171-26.612 3.081-11.793 7.467-23.063 12.989-33.65-.962-.034-1.925-.055-2.893-.055-18.059 0-35.106 5.914-48.964 16.38-4.737 15.933-7.586 32.678-8.268 49.982.7-.053 1.404-.087 2.114-.082 4.161.026 7.944-2.265 9.851-5.963z"/><path d="m412.34 281.637c15.352 3.091 28.201 13.086 35.172 26.612 1.906 3.699 5.689 5.99 9.85 5.963.71-.005 1.414.029 2.114.082-.682-17.304-3.531-34.05-8.269-49.983-13.858-10.465-30.904-16.379-48.963-16.379-.968 0-1.932.022-2.893.055 5.522 10.587 9.908 21.857 12.989 33.65z"/></g><g fill="#e8f9fc"><g><path d="m219.094 357.341c-2.132-13.107-12.02-22.944-24.106-25.471-3.056-.639-5.667-2.617-7.197-5.38-4.602-8.313-13.38-13.599-22.919-13.536-4.161.027-7.944-2.3-9.85-6.057-8.452-16.662-25.545-28.06-45.267-28.06s-36.815 11.398-45.267 28.06c-1.906 3.757-5.69 6.085-9.85 6.057-9.538-.062-18.316 5.223-22.919 13.537-1.53 2.763-4.14 4.74-7.197 5.379-12.086 2.527-21.974 12.364-24.106 25.471-2.765 16.996 8.556 33.052 25.286 35.861h168.107c16.729-2.809 28.05-18.864 25.285-35.861z"/><path d="m511.583 357.341c-2.132-13.107-12.02-22.944-24.106-25.471-3.056-.639-5.667-2.617-7.197-5.38-4.602-8.313-13.38-13.599-22.919-13.536-4.161.027-7.944-2.3-9.85-6.057-8.453-16.662-25.545-28.06-45.267-28.06s-36.815 11.398-45.267 28.06c-1.906 3.757-5.69 6.085-9.85 6.057-9.538-.062-18.316 5.223-22.919 13.537-1.53 2.763-4.14 4.74-7.197 5.379-12.086 2.527-21.974 12.364-24.106 25.471-2.765 16.996 8.556 33.052 25.286 35.861h168.107c16.729-2.809 28.05-18.864 25.285-35.861z"/></g><path d="m219.094 357.341c-2.132-13.107-12.02-22.944-24.106-25.471-3.056-.639-5.667-2.617-7.197-5.38-4.602-8.313-13.38-13.599-22.919-13.536-4.161.027-7.944-2.3-9.85-6.057-8.452-16.662-25.545-28.06-45.267-28.06s-36.815 11.398-45.267 28.06c-1.906 3.757-5.69 6.085-9.85 6.057-9.538-.062-18.316 5.223-22.919 13.537-1.53 2.763-4.14 4.74-7.197 5.379-12.086 2.527-21.974 12.364-24.106 25.471-2.765 16.996 8.556 33.052 25.286 35.861h168.107c16.729-2.809 28.05-18.864 25.285-35.861z"/><path d="m511.583 357.341c-2.132-13.107-12.02-22.944-24.106-25.471-3.056-.639-5.667-2.617-7.197-5.38-4.602-8.313-13.38-13.599-22.919-13.536-4.161.027-7.944-2.3-9.85-6.057-8.453-16.662-25.545-28.06-45.267-28.06s-36.815 11.398-45.267 28.06c-1.906 3.757-5.69 6.085-9.85 6.057-9.538-.062-18.316 5.223-22.919 13.537-1.53 2.763-4.14 4.74-7.197 5.379-12.086 2.527-21.974 12.364-24.106 25.471-2.765 16.996 8.556 33.052 25.286 35.861h168.107c16.729-2.809 28.05-18.864 25.285-35.861z"/></g><path d="m63.268 357.341c2.133-13.107 12.02-22.944 24.106-25.471 3.056-.639 5.667-2.617 7.197-5.379 4.603-8.313 13.381-13.599 22.919-13.537 4.161.027 7.944-2.3 9.851-6.057 3.368-6.639 8.111-12.438 13.841-17.017-8.653-6.914-19.562-11.043-31.426-11.043-19.723 0-36.815 11.398-45.267 28.06-1.906 3.757-5.689 6.085-9.85 6.057-9.538-.062-18.316 5.223-22.919 13.537-1.53 2.763-4.141 4.74-7.197 5.379-12.086 2.527-21.974 12.364-24.106 25.471-2.765 16.996 8.556 33.052 25.286 35.861h62.852c-16.731-2.809-28.052-18.864-25.287-35.861z" fill="#d9e7ec"/><path d="m355.757 357.341c2.132-13.107 12.02-22.944 24.106-25.471 3.056-.639 5.667-2.617 7.197-5.379 4.603-8.313 13.381-13.599 22.919-13.537 4.161.027 7.944-2.3 9.85-6.057 3.368-6.639 8.111-12.438 13.841-17.017-8.652-6.914-19.562-11.043-31.426-11.043-19.722 0-36.815 11.398-45.267 28.06-1.906 3.757-5.69 6.085-9.85 6.057-9.538-.062-18.316 5.223-22.919 13.537-1.529 2.763-4.14 4.74-7.196 5.379-12.086 2.527-21.974 12.364-24.106 25.471-2.765 16.996 8.556 33.052 25.286 35.861h62.852c-16.731-2.809-28.052-18.864-25.287-35.861z" fill="#d9e7ec"/></g></svg>