<svg id="Layer_1" enable-background="new 0 0 512 512" height="512" viewBox="0 0 512 512" width="512" xmlns="http://www.w3.org/2000/svg"><g><path d="m412.078 41.616c-6.443-.094-12.598 1.091-18.231 3.319-3.049 1.205-6.469-.189-7.876-3.159-11.702-24.701-36.794-41.776-65.861-41.776s-54.159 17.075-65.861 41.775c-1.407 2.97-4.827 4.364-7.876 3.159-5.633-2.227-11.788-3.412-18.231-3.319-25.239.368-46.116 20.806-47.071 46.118-1.032 27.352 20.757 49.851 47.782 49.851 12.259 0 23.441-4.63 31.903-12.241 2.449-2.203 6.148-2.102 8.504.201 13.132 12.835 31.071 20.742 50.85 20.742s37.718-7.907 50.85-20.742c2.356-2.303 6.055-2.403 8.504-.201 8.463 7.612 19.644 12.241 31.903 12.241 27.025 0 48.814-22.499 47.782-49.851-.955-25.312-21.832-45.749-47.071-46.117z" fill="#f1f9fb"/><g fill="#e1e9eb"><g><path d="m459.149 87.734c-.955-25.313-21.833-45.75-47.071-46.118-5.682-.083-11.141.83-16.215 2.575 18.198 6.285 31.62 23.365 32.381 43.544.825 21.879-12.952 40.652-32.33 47.289 4.848 1.66 10.046 2.562 15.453 2.562 27.025-.001 48.814-22.5 47.782-49.852z"/><path d="m355.065 41.775c1.407 2.97 4.827 4.364 7.876 3.159 5.633-2.227 11.788-3.412 18.231-3.319 1.647.024 3.275.134 4.88.325-.028-.055-.055-.109-.081-.165-11.702-24.7-36.794-41.775-65.861-41.775-5.302 0-10.472.569-15.453 1.648 22.323 4.836 40.841 19.933 50.408 40.127z"/></g><circle cx="85.888" cy="261.449" r="16.483"/><circle cx="174.184" cy="338.739" r="16.483"/><circle cx="421.895" cy="478.221" r="16.483"/><circle cx="299.449" cy="401.154" r="16.483"/><circle cx="398.17" cy="296.777" r="16.483"/><circle cx="206.987" cy="495.517" r="16.483"/><circle cx="74.592" cy="478.221" r="16.483"/></g><path d="m231.042 103.046c-6.443-.094-12.598 1.091-18.231 3.319-3.049 1.205-6.469-.189-7.876-3.159-11.702-24.7-36.794-41.775-65.861-41.775s-54.159 17.075-65.861 41.775c-1.407 2.97-4.827 4.364-7.876 3.159-5.633-2.227-11.788-3.412-18.231-3.319-25.239.368-46.116 20.806-47.071 46.118-1.032 27.352 20.757 49.851 47.782 49.851 12.259 0 23.441-4.63 31.903-12.241 2.449-2.203 6.148-2.102 8.504.201 13.132 12.835 31.071 20.742 50.85 20.742s37.718-7.907 50.85-20.742c2.356-2.303 6.055-2.403 8.504-.201 8.463 7.612 19.644 12.241 31.903 12.241 27.025 0 48.814-22.499 47.782-49.851-.954-25.312-21.832-45.75-47.071-46.118z" fill="#f1f9fb"/><g fill="#e1e9eb"><path d="m278.114 149.164c-.955-25.313-21.833-45.75-47.071-46.118-5.682-.083-11.141.83-16.215 2.575 18.198 6.285 31.62 23.365 32.381 43.544.825 21.879-12.952 40.652-32.33 47.289 4.848 1.66 10.046 2.562 15.453 2.562 27.024-.001 48.814-22.5 47.782-49.852z"/><path d="m174.03 103.206c1.407 2.97 4.827 4.364 7.876 3.159 5.633-2.227 11.788-3.412 18.231-3.319 1.647.024 3.275.134 4.88.325-.028-.055-.055-.109-.081-.165-11.702-24.7-36.794-41.775-65.861-41.775-5.302 0-10.472.569-15.453 1.648 22.322 4.836 40.841 19.933 50.408 40.127z"/></g><path d="m464.893 136.907c-6.443-.094-12.598 1.091-18.231 3.319-3.049 1.205-6.469-.189-7.876-3.159-11.702-24.7-36.794-41.775-65.861-41.775s-54.159 17.075-65.861 41.775c-1.407 2.97-4.827 4.364-7.876 3.159-5.633-2.227-11.788-3.412-18.231-3.319-25.239.368-46.116 20.806-47.071 46.118-1.032 27.352 20.757 49.851 47.782 49.851 12.259 0 23.441-4.63 31.903-12.241 2.449-2.203 6.148-2.102 8.504.201 13.132 12.835 31.071 20.742 50.85 20.742s37.718-7.907 50.85-20.742c2.356-2.303 6.055-2.403 8.504-.201 8.463 7.612 19.644 12.241 31.903 12.241 27.025 0 48.814-22.499 47.782-49.851-.954-25.312-21.832-45.75-47.071-46.118z" fill="#f1f9fb"/><g fill="#e1e9eb"><path d="m511.965 183.025c-.955-25.313-21.833-45.75-47.071-46.118-5.682-.083-11.141.83-16.215 2.575 18.198 6.285 31.62 23.365 32.381 43.544.825 21.879-12.952 40.652-32.33 47.289 4.848 1.66 10.046 2.562 15.453 2.562 27.024 0 48.814-22.5 47.782-49.852z"/><path d="m407.881 137.067c1.407 2.97 4.827 4.364 7.876 3.159 5.633-2.227 11.788-3.412 18.231-3.319 1.647.024 3.275.134 4.88.325-.028-.055-.055-.109-.082-.165-11.702-24.7-36.794-41.775-65.861-41.775-5.302 0-10.472.569-15.453 1.648 22.324 4.836 40.842 19.933 50.409 40.127z"/></g></g></svg>